<svg width="600" height="600" viewBox="0 0 600 600" fill="none" xmlns="http://www.w3.org/2000/svg">
<rect width="600" height="600" fill="#325A3D"/>
<path d="M560 510L50 510" stroke="white" stroke-width="20" stroke-linecap="square"/>
<path d="M127.21 459H115.42L113.62 452.7C109.9 455.28 105.67 457.29 100.93 458.73C96.19 460.11 91.09 460.8 85.63 460.8C77.59 460.8 70.27 459.27 63.67 456.21C57.13 453.15 51.97 448.95 48.19 443.61C44.41 438.27 42.52 432.33 42.52 425.79C42.52 419.13 44.41 413.13 48.19 407.79C52.03 402.45 57.25 398.28 63.85 395.28C70.45 392.28 77.71 390.78 85.63 390.78C92.29 390.78 98.47 391.8 104.17 393.84C109.93 395.82 114.79 398.79 118.75 402.75C122.71 406.65 125.35 411.42 126.67 417.06H107.14C105.64 413.1 102.85 410.19 98.77 408.33C94.75 406.47 90.4 405.54 85.72 405.54C81.46 405.54 77.56 406.38 74.02 408.06C70.54 409.68 67.78 412.02 65.74 415.08C63.76 418.14 62.77 421.71 62.77 425.79C62.77 429.99 63.79 433.62 65.83 436.68C67.93 439.74 70.72 442.08 74.2 443.7C77.74 445.26 81.58 446.04 85.72 446.04C89.98 446.04 93.97 445.17 97.69 443.43C101.41 441.69 104.29 439.11 106.33 435.69H86.17V424.71H127.03V432.09L127.21 459ZM183.466 419.85C189.766 419.85 195.226 420.24 199.846 421.02C204.466 421.8 208.306 423.48 211.366 426.06C214.486 428.64 216.046 432.45 216.046 437.49C216.046 446.73 211.996 452.97 203.896 456.21C195.796 459.45 186.706 461.07 176.626 461.07C166.726 461.07 157.456 459.42 148.816 456.12C140.176 452.76 135.856 446.4 135.856 437.04L155.206 436.86C155.206 440.16 156.466 442.62 158.986 444.24C161.566 445.86 164.356 446.88 167.356 447.3C170.416 447.66 173.716 447.84 177.256 447.84C182.656 447.84 187.306 447.06 191.206 445.5C195.106 443.94 197.086 441.42 197.146 437.94V437.85C197.146 435.27 195.196 433.62 191.296 432.9C187.456 432.12 182.806 431.73 177.346 431.73H177.256H171.766C164.566 431.73 158.476 431.37 153.496 430.65C148.516 429.87 144.316 428.13 140.896 425.43C137.536 422.67 135.856 418.53 135.856 413.01C135.856 397.95 149.446 390.42 176.626 390.42C186.286 390.42 195.256 392.07 203.536 395.37C211.876 398.67 216.046 405.03 216.046 414.45H196.876C196.876 411.09 194.926 408.54 191.026 406.8C187.126 405.06 182.386 404.07 176.806 403.83C170.746 403.83 165.586 404.55 161.326 405.99C157.126 407.43 155.026 409.68 155.026 412.74C155.026 417.54 161.986 419.94 175.906 419.94L183.466 419.85ZM272.32 419.85C278.62 419.85 284.08 420.24 288.7 421.02C293.32 421.8 297.16 423.48 300.22 426.06C303.34 428.64 304.9 432.45 304.9 437.49C304.9 446.73 300.85 452.97 292.75 456.21C284.65 459.45 275.56 461.07 265.48 461.07C255.58 461.07 246.31 459.42 237.67 456.12C229.03 452.76 224.71 446.4 224.71 437.04L244.06 436.86C244.06 440.16 245.32 442.62 247.84 444.24C250.42 445.86 253.21 446.88 256.21 447.3C259.27 447.66 262.57 447.84 266.11 447.84C271.51 447.84 276.16 447.06 280.06 445.5C283.96 443.94 285.94 441.42 286 437.94V437.85C286 435.27 284.05 433.62 280.15 432.9C276.31 432.12 271.66 431.73 266.2 431.73H266.11H260.62C253.42 431.73 247.33 431.37 242.35 430.65C237.37 429.87 233.17 428.13 229.75 425.43C226.39 422.67 224.71 418.53 224.71 413.01C224.71 397.95 238.3 390.42 265.48 390.42C275.14 390.42 284.11 392.07 292.39 395.37C300.73 398.67 304.9 405.03 304.9 414.45H285.73C285.73 411.09 283.78 408.54 279.88 406.8C275.98 405.06 271.24 404.07 265.66 403.83C259.6 403.83 254.44 404.55 250.18 405.99C245.98 407.43 243.88 409.68 243.88 412.74C243.88 417.54 250.84 419.94 264.76 419.94L272.32 419.85Z" fill="white"/>
<path d="M435.68 444.87V459H352.88V451.8C352.88 444.06 354.47 438.15 357.65 434.07C360.89 429.93 364.64 427.14 368.9 425.7C373.16 424.2 378.62 422.91 385.28 421.83C387.08 421.59 390.17 421.2 394.55 420.66C399.29 420.12 402.98 419.61 405.62 419.13C408.26 418.59 410.45 417.81 412.19 416.79C413.99 415.71 414.89 414.27 414.89 412.47C414.89 409.29 412.73 406.98 408.41 405.54C404.15 404.04 398.96 403.32 392.84 403.38C386.96 403.44 381.95 404.37 377.81 406.17C373.73 407.91 371.69 410.67 371.69 414.45H352.88C352.88 408.15 355.07 403.23 359.45 399.69C363.83 396.09 368.99 393.66 374.93 392.4C380.93 391.08 386.87 390.42 392.75 390.42C403.43 390.42 412.97 391.86 421.37 394.74C429.77 397.62 433.97 403.56 433.97 412.56C433.97 417.3 432.2 421.08 428.66 423.9C425.12 426.72 421.1 428.73 416.6 429.93C412.16 431.07 407.09 432.06 401.39 432.9C398.75 433.32 397.25 433.56 396.89 433.62C392.57 434.16 388.31 435.03 384.11 436.23C379.97 437.37 376.55 438.72 373.85 440.28C371.21 441.78 369.89 443.31 369.89 444.87H435.68ZM444.191 443.7V459H461.651V443.7H444.191ZM512.762 391.86C540.542 391.74 554.432 403.02 554.432 425.7C554.432 434.52 551.612 442.53 545.972 449.73C540.332 456.93 529.262 460.53 512.762 460.53C501.122 460.53 492.122 458.58 485.762 454.68C479.402 450.78 475.172 446.25 473.072 441.09C471.032 435.87 470.102 430.74 470.282 425.7C470.282 417.06 473.192 409.26 479.012 402.3C484.832 395.34 496.082 391.86 512.762 391.86ZM512.852 446.76C518.732 446.76 523.502 445.77 527.162 443.79C530.822 441.75 533.432 439.14 534.992 435.96C536.552 432.72 537.272 429.24 537.152 425.52C537.272 421.98 536.552 418.68 534.992 415.62C533.432 412.56 530.822 410.1 527.162 408.24C523.502 406.32 518.732 405.36 512.852 405.36C506.972 405.36 502.202 406.32 498.542 408.24C494.942 410.1 492.362 412.56 490.802 415.62C489.302 418.68 488.612 421.98 488.732 425.52C488.612 429.24 489.302 432.72 490.802 435.96C492.362 439.14 494.942 441.75 498.542 443.79C502.202 445.77 506.972 446.76 512.852 446.76Z" fill="white"/>
<path d="M202.263 178L50 350H215.163L188.679 321.109C185.358 317.485 185.162 311.985 188.219 308.134L214.912 274.506C217.871 270.777 217.792 265.478 214.722 261.84L200.027 244.423C197.467 241.389 196.944 237.127 198.695 233.564L207.256 216.147C208.202 214.221 208.504 212.043 208.117 209.932L202.263 178Z" stroke="white" stroke-width="20" stroke-linejoin="round"/>
<path d="M204.01 178L345 350H216.683L190.61 321.048C187.365 317.444 187.173 312.031 190.156 308.207L216.491 274.436C219.379 270.733 219.301 265.52 216.304 261.905L201.773 244.374C199.275 241.361 198.765 237.168 200.466 233.644L208.934 216.106C209.852 214.206 210.145 212.063 209.771 209.986L204.01 178Z" stroke="white" stroke-width="20" stroke-linejoin="round"/>
<mask id="mask0_60_326" style="mask-type:alpha" maskUnits="userSpaceOnUse" x="192" y="196" width="148" height="153">
<path d="M206.647 196.105L339.49 348.734H218.588L195.006 324.072C191.449 320.352 191.296 314.539 194.654 310.638L218.076 283.421C221.663 279.254 221.212 272.972 217.067 269.359L206.175 259.867C202.899 257.012 201.842 252.368 203.56 248.376L211.405 230.143C212.195 228.306 212.417 226.275 212.042 224.312L206.647 196.105Z" fill="white"/>
</mask>
<g mask="url(#mask0_60_326)">
<path d="M192.06 218.205L304.072 348.984" stroke="white" stroke-width="20" stroke-linejoin="round"/>
<path d="M182.194 254.164L294.207 384.943" stroke="white" stroke-width="20" stroke-linejoin="round"/>
</g>
<path d="M329 324C360 308.091 468.5 289 546 289" stroke="white" stroke-width="20" stroke-linejoin="round"/>
<path d="M411 350C469.005 305.346 523.903 295.379 546 289" stroke="white" stroke-width="20" stroke-linejoin="round"/>
<path d="M396.186 192V297.333" stroke="white" stroke-width="20" stroke-linecap="round" stroke-linejoin="round"/>
<path d="M400.163 260.439C404.709 263.091 417.436 268.394 431.983 268.394" stroke="white" stroke-width="20" stroke-linecap="round"/>
<path d="M423.627 241.544C412.439 241.544 402.327 238.407 396.186 235.752" stroke="white" stroke-width="20" stroke-linecap="round"/>
<path d="M420.05 215.437C410.822 215.437 402.325 213.302 396.186 211.064" stroke="white" stroke-width="20" stroke-linecap="round"/>
<path d="M392.208 260.439C387.662 263.091 374.935 268.394 360.389 268.394" stroke="white" stroke-width="20" stroke-linecap="round"/>
<path d="M368.344 241.719C379.778 241.719 390.09 238.442 396.186 235.752" stroke="white" stroke-width="20" stroke-linecap="round"/>
<path d="M372.321 215.437C381.549 215.437 390.046 213.302 396.186 211.064" stroke="white" stroke-width="20" stroke-linecap="round"/>
<path fill-rule="evenodd" clip-rule="evenodd" d="M30 360L570 360V350C570 314.543 563.016 279.433 549.448 246.675C535.879 213.918 515.991 184.153 490.919 159.081C465.847 134.009 436.082 114.121 403.325 100.553C370.567 86.9838 335.457 80 300 80C264.543 80 229.433 86.9838 196.675 100.553C163.918 114.121 134.153 134.009 109.081 159.081C84.0093 184.153 64.1213 213.918 50.5525 246.676C36.9838 279.433 30 314.543 30 350L30 360ZM50.2001 340C51.3777 310.583 57.7436 281.577 69.0301 254.329C81.5938 223.998 100.009 196.438 123.223 173.223C146.438 150.009 173.998 131.594 204.329 119.03C234.661 106.466 267.17 100 300 100C332.83 100 365.339 106.466 395.671 119.03C426.002 131.594 453.562 150.009 476.777 173.223C499.991 196.438 518.406 223.998 530.97 254.329C542.256 281.577 548.622 310.583 549.8 340L50.2001 340Z" fill="white"/>
</svg>
